<?xml version="1.0" encoding="UTF-8"?>
<svg width="128mm" height="128mm" version="1.1" viewBox="0 0 128 128" xml:space="preserve" xmlns="http://www.w3.org/2000/svg" xmlns:xlink="http://www.w3.org/1999/xlink"><defs><linearGradient id="b" x1="35.405" x2="92.595" y1="63.941" y2="63.941" gradientUnits="userSpaceOnUse"><stop stop-color="#27f55d" offset="0"/><stop stop-color="#27f55d" offset=".5"/><stop stop-color="#12d043" offset=".5"/></linearGradient><linearGradient id="a" x1="54.968" x2="73.158" y1="73.384" y2="73.384" gradientTransform="translate(-.062281 .0077851)" gradientUnits="userSpaceOnUse"><stop stop-color="#fff" offset="0"/><stop stop-color="#fff" offset=".5"/><stop stop-color="#d9d9d9" offset=".5"/></linearGradient><clipPath id="c"><rect width="128" height="128" fill="#3f9ae8" stroke-width="2.8223"/></clipPath></defs><g><g><rect width="128" height="128" fill="#3f9ae8" stroke-width="2.8223"/></g><g><path d="m44.618 90.349 28.795-58.159 76.469 68.892-36.842 49.505z" clip-path="url(#c)" opacity=".31383" stroke-width=".26458"/></g><g transform="matrix(.88994 0 0 .88994 7.0439 7.0373)"><path class="UnoptimicedTransforms" d="m64 100s-12.241 0.063-17.302-3.0341c-4.1282-2.5259-8.8675-6.6036-10.575-14.382-2.5973-11.832 2.2421-20.428 8.2211-27.777 5.621-6.9091 12.416-9.3872 12.83-9.9649 0.51549-0.71926-4.0171-6.1658-4.6399-11.771-0.55056-4.9551 0.87193-5.8855 4.3597-4.7645 3.4877 1.1211 7.1065 1.6934 7.1065 1.6934zm0 0s12.241 0.063 17.302-3.0341c4.1282-2.5259 8.8675-6.6036 10.575-14.382 2.5973-11.832-2.2421-20.428-8.2211-27.777-5.621-6.9091-12.416-9.3872-12.83-9.9649-0.51549-0.71926 4.0171-6.1658 4.6399-11.771 0.55056-4.9551-0.87193-5.8855-4.3597-4.7645-3.4877 1.1211-7.1065 1.6934-7.1065 1.6934z" fill="url(#b)" stroke-width=".26458"/></g><g transform="matrix(.88994 0 0 .88994 7.0439 7.0373)"><text x="52.575184" y="86.759163" fill="url(#a)" font-family="Ebrima" font-size="38.806px" font-weight="bold" stroke-width=".26458" style="font-variant-caps:normal;font-variant-east-asian:normal;font-variant-ligatures:normal;font-variant-numeric:normal" xml:space="preserve"><tspan x="52.575184" y="86.759163" fill="url(#a)" font-family="Ebrima" font-size="38.806px" font-weight="bold" stroke-width=".26458" style="font-variant-caps:normal;font-variant-east-asian:normal;font-variant-ligatures:normal;font-variant-numeric:normal">$</tspan></text></g></g></svg>
