<?xml version="1.0" encoding="UTF-8"?>
<svg width="128mm" height="128mm" version="1.1" viewBox="0 0 128 128" xml:space="preserve" xmlns="http://www.w3.org/2000/svg" xmlns:xlink="http://www.w3.org/1999/xlink"><defs><linearGradient id="a" x1="35.405" x2="92.595" y1="63.941" y2="63.941" gradientUnits="userSpaceOnUse"><stop stop-color="#27f55d" offset="0"/><stop stop-color="#27f55d" offset=".5"/><stop stop-color="#12d043" offset=".5"/></linearGradient></defs><g><g transform="matrix(.88994 0 0 .88994 25.04 8.4968)"><path transform="translate(-20.221 -1.6401)" d="m54.663 27.881c-1.8457 0.02101-2.5425 1.4736-2.1296 5.1899 0.62281 5.6053 5.1555 11.052 4.64 11.771-0.41406 0.57774-7.2093 3.0557-12.83 9.9648-5.9789 7.3491-10.818 15.945-8.2207 27.777 1.7074 7.778 6.4463 11.856 10.575 14.382 5.0617 3.0971 17.302 3.0344 17.302 3.0344s12.241 0.0626 17.302-3.0344c4.1282-2.5259 8.8677-6.6035 10.575-14.382 2.5973-11.832-2.2423-20.428-8.2212-27.777-5.621-6.9091-12.416-9.387-12.83-9.9648-0.51549-0.71926 4.0172-6.1661 4.64-11.771 0.55056-4.9551-0.87222-5.8856-4.3599-4.7646-3.4877 1.1211-7.1065 1.6934-7.1065 1.6934s-3.6188-0.57238-7.1065-1.6934c-0.87193-0.28026-1.6146-0.4323-2.2298-0.4253zm7.9163 28.182h2.7662v3.4484c2.6654 0.12632 4.6549 0.55615 5.9686 1.2888v5.116c-1.7685-1.0737-3.758-1.7309-5.9686-1.9709v7.1815c2.7664 0.99793 4.75 2.1413 5.95 3.4298 1.2 1.2758 1.7999 2.8231 1.7999 4.6421 0 2.0969-0.66967 3.7898-2.0087 5.0782-1.339 1.2758-3.2527 2.0527-5.7413 2.3306v4.1114h-2.7662v-3.9977c-2.5643-0.01263-4.9518-0.59405-7.1624-1.7436v-5.2483c0.73266 0.5937 1.8252 1.1432 3.2778 1.6485s2.7476 0.79547 3.8845 0.87126v-6.8967c-2.9559-1.099-4.9768-2.2867-6.0632-3.5626-1.0737-1.2885-1.6108-2.8547-1.6108-4.6989 0-1.9832 0.70108-3.6696 2.1032-5.0591 1.4022-1.4022 3.2591-2.2169 5.5707-2.4443zm0 7.9582c-1.7559 0.3158-2.6339 1.2318-2.6339 2.7476 0 1.3011 0.8781 2.3871 2.6339 3.2587zm2.7662 12.411v5.7413c1.8064-0.2779 2.7099-1.1814 2.7099-2.7099 0-1.2379-0.90353-2.2482-2.7099-3.0313z" fill="url(#a)" stroke-width=".26458"/></g></g></svg>
