<svg xmlns="http://www.w3.org/2000/svg" height="24" viewBox="0 -960 960 960" width="24"><path d="M480-387.846q-14.385 0-25.577-11.193-11.192-11.192-11.192-25.576 0-14.385 11.192-25.577 11.192-11.193 25.577-11.193 14.385 0 25.577 11.193 11.192 11.192 11.192 25.577 0 14.384-11.192 25.576-11.192 11.193-25.577 11.193Zm-160 0q-14.385 0-25.577-11.193-11.192-11.192-11.192-25.576 0-14.385 11.192-25.577 11.192-11.193 25.577-11.193 14.385 0 25.577 11.193 11.192 11.192 11.192 25.577 0 14.384-11.192 25.576-11.192 11.193-25.577 11.193Zm320 0q-14.385 0-25.577-11.193-11.192-11.192-11.192-25.576 0-14.385 11.192-25.577 11.192-11.193 25.577-11.193 14.385 0 25.577 11.193 11.192 11.192 11.192 25.577 0 14.384-11.192 25.576-11.192 11.193-25.577 11.193ZM480-234q-14.385 0-25.577-11.192-11.192-11.193-11.192-25.577 0-14.385 11.192-25.577 11.192-11.193 25.577-11.193 14.385 0 25.577 11.193 11.192 11.192 11.192 25.577 0 14.384-11.192 25.577Q494.385-234 480-234Zm-160 0q-14.385 0-25.577-11.192-11.192-11.193-11.192-25.577 0-14.385 11.192-25.577 11.192-11.193 25.577-11.193 14.385 0 25.577 11.193 11.192 11.192 11.192 25.577 0 14.384-11.192 25.577Q334.385-234 320-234Zm320 0q-14.385 0-25.577-11.192-11.192-11.193-11.192-25.577 0-14.385 11.192-25.577 11.192-11.193 25.577-11.193 14.385 0 25.577 11.193 11.192 11.192 11.192 25.577 0 14.384-11.192 25.577Q654.385-234 640-234ZM218.615-90q-38.34 0-64.478-26.137Q128-142.275 128-180.615v-522.77q0-38.34 26.137-64.478Q180.275-794 218.615-794h38.769v-85.231h69.077V-794h310.154v-85.231h66.001V-794h38.769q38.34 0 64.478 26.137Q832-741.725 832-703.385v522.77q0 38.34-26.137 64.478Q779.725-90 741.385-90h-522.77Zm0-66h522.77q9.23 0 16.923-7.692Q766-171.385 766-180.615v-374.77H194v374.77q0 9.23 7.692 16.923Q209.385-156 218.615-156Z"/></svg>