<svg xmlns="http://www.w3.org/2000/svg" height="24" viewBox="0 -960 960 960" width="24"><path d="M434-186h90v-52q56-14 90-45t34-92.921Q648-420 625-458q-23-38-97-64-59-20-84.5-33.929Q418-569.857 418-594q0-23 16-35.5t48-12.5q33 0 49.5 17t22.5 41l84-34q-9-39-40-70t-72-34.113V-774h-90v52q-50 12-79 47.5T328-594q0 50 28.5 82t85.5 52q63 23 89.5 39.892Q558-403.215 558-376q0 28.875-20 42.438Q518-320 485.564-320t-57.5-21Q403-362 394-406l-86 32q12 54 43.5 88t82.5 45.524V-186Zm46 138q-89.64 0-168.48-34.02-78.84-34.02-137.16-92.34-58.32-58.32-92.34-137.16T48-480q0-89.896 34.079-168.961 34.079-79.066 92.5-137.552Q233-845 311.738-878.5 390.476-912 480-912q89.886 0 168.943 33.5Q728-845 786.5-786.5q58.5 58.5 92 137.583 33.5 79.084 33.5 169Q912-390 878.5-311.5t-91.987 136.921q-58.486 58.421-137.552 92.5Q569.896-48 480-48Z"/></svg>