<svg xmlns="http://www.w3.org/2000/svg" height="24" viewBox="0 -960 960 960" width="24"><path d="M261.965-60Q224-60 197-87.035q-27-27.036-27-65Q170-190 197.035-217q27.036-27 65-27Q300-244 327-216.965q27 27.036 27 65Q354-114 326.965-87q-27.036 27-65 27Zm424 0Q648-60 621-87.035q-27-27.036-27-65Q594-190 621.035-217q27.036-27 65-27Q724-244 751-216.965q27 27.036 27 65Q778-114 750.965-87q-27.036 27-65 27ZM192-828h644q22.511 0 34.255 20.5Q882-787 870-766L708-476q-12 23-33.949 36.5Q652.102-426 626-426H316l-32 56h496v106H262q-53 0-78.5-46.5T182-402l50-94L88-802H2v-106h152l38 80Z"/></svg>