<svg xmlns="http://www.w3.org/2000/svg" height="24" viewBox="0 -960 960 960" width="24"><path d="M237.085-499.086 483-900.48l244.915 401.394h-490.83ZM715.668-51.52q-80.755 0-137.407-56.528-56.652-56.529-56.652-137.284t56.644-137.407q56.645-56.652 137.566-56.652 80.921 0 137.291 56.644 56.37 56.645 56.37 137.566 0 80.921-56.528 137.291-56.529 56.37-137.284 56.37Zm-628.192-20v-346.871h347.437V-71.52H87.476Zm628.351-81.001q38.608 0 65.63-27.022t27.022-65.63q0-38.609-27.022-65.913-27.022-27.304-65.63-27.304-38.609 0-65.913 27.304-27.304 27.304-27.304 65.913 0 38.608 27.304 65.63t65.913 27.022Zm-527.35-20h145.434V-317.39H188.477v144.869Zm228.524-427.566h130.998L483-706.304l-65.999 106.217Zm65.499 0ZM333.911-317.39Zm381.916 72.217Z"/></svg>