<svg xmlns="http://www.w3.org/2000/svg" height="24" viewBox="0 -960 960 960" width="24"><path fill="#000000" d="M320-259q22 0 37.5-15.5T373-312q0-22-15.5-37.5T320-365q-22 0-37.5 15.5T267-312q0 22 15.5 37.5T320-259Zm0-168q22 0 37.5-15.5T373-480q0-22-15.5-37.5T320-533q-22 0-37.5 15.5T267-480q0 22 15.5 37.5T320-427Zm0-170q22 0 37.5-15.5T373-650q0-22-15.5-37.5T320-703q-22 0-37.5 15.5T267-650q0 22 15.5 37.5T320-597Zm114 339h260v-106H434v106Zm0-170h260v-106H434v106Zm0-168h260v-106H434v106ZM200-94q-43.725 0-74.863-31.137Q94-156.275 94-200v-560q0-43.725 31.137-74.862Q156.275-866 200-866h560q43.725 0 74.862 31.138Q866-803.725 866-760v560q0 43.725-31.138 74.863Q803.725-94 760-94H200Z"/></svg>